<svg width="16" height="4" viewBox="0 0 16 4" fill="none" xmlns="http://www.w3.org/2000/svg">
<path d="M7.99992 2.83329C8.46016 2.83329 8.83325 2.4602 8.83325 1.99996C8.83325 1.53972 8.46016 1.16663 7.99992 1.16663C7.53968 1.16663 7.16659 1.53972 7.16659 1.99996C7.16659 2.4602 7.53968 2.83329 7.99992 2.83329Z" stroke="#98A2B3" stroke-width="1.66667" stroke-linecap="round" stroke-linejoin="round"/>
<path d="M13.8333 2.83329C14.2935 2.83329 14.6666 2.4602 14.6666 1.99996C14.6666 1.53972 14.2935 1.16663 13.8333 1.16663C13.373 1.16663 12.9999 1.53972 12.9999 1.99996C12.9999 2.4602 13.373 2.83329 13.8333 2.83329Z" stroke="#98A2B3" stroke-width="1.66667" stroke-linecap="round" stroke-linejoin="round"/>
<path d="M2.16659 2.83329C2.62682 2.83329 2.99992 2.4602 2.99992 1.99996C2.99992 1.53972 2.62682 1.16663 2.16659 1.16663C1.70635 1.16663 1.33325 1.53972 1.33325 1.99996C1.33325 2.4602 1.70635 2.83329 2.16659 2.83329Z" stroke="#98A2B3" stroke-width="1.66667" stroke-linecap="round" stroke-linejoin="round"/>
</svg>
