<svg width="18" height="17" viewBox="0 0 18 17" fill="none" xmlns="http://www.w3.org/2000/svg">
<path d="M8.40229 1.8778C8.59436 1.48869 8.6904 1.29413 8.82077 1.23197C8.9342 1.17789 9.06599 1.17789 9.17942 1.23197C9.30979 1.29413 9.40583 1.48869 9.5979 1.8778L11.4201 5.56944C11.4768 5.68432 11.5052 5.74176 11.5466 5.78635C11.5833 5.82584 11.6273 5.85783 11.6762 5.88056C11.7314 5.90623 11.7948 5.91549 11.9215 5.93402L15.9976 6.5298C16.4268 6.59253 16.6414 6.6239 16.7407 6.72874C16.8271 6.81995 16.8678 6.94529 16.8513 7.06985C16.8324 7.21302 16.6771 7.36436 16.3663 7.66703L13.418 10.5387C13.326 10.6282 13.2801 10.673 13.2504 10.7263C13.2242 10.7734 13.2073 10.8252 13.2008 10.8788C13.1935 10.9393 13.2043 11.0025 13.226 11.129L13.9217 15.1851C13.9951 15.6129 14.0318 15.8269 13.9628 15.9538C13.9028 16.0642 13.7962 16.1417 13.6726 16.1646C13.5306 16.1909 13.3385 16.0899 12.9543 15.8879L9.3104 13.9716C9.19686 13.9119 9.14009 13.882 9.08028 13.8703C9.02733 13.8599 8.97286 13.8599 8.91991 13.8703C8.8601 13.882 8.80333 13.9119 8.6898 13.9716L5.04585 15.8879C4.66168 16.0899 4.46959 16.1909 4.32756 16.1646C4.20398 16.1417 4.09735 16.0642 4.03736 15.9538C3.96842 15.8269 4.0051 15.6129 4.07848 15.1851L4.77415 11.129C4.79584 11.0025 4.80669 10.9393 4.79935 10.8788C4.79285 10.8252 4.77601 10.7734 4.74975 10.7263C4.7201 10.673 4.67415 10.6282 4.58224 10.5387L1.63388 7.66702C1.32313 7.36436 1.16776 7.21302 1.14885 7.06985C1.1324 6.94529 1.17304 6.81995 1.25946 6.72874C1.35878 6.6239 1.57339 6.59253 2.00262 6.5298L6.07867 5.93402C6.20543 5.91549 6.26882 5.90623 6.32401 5.88056C6.37288 5.85783 6.41688 5.82584 6.45357 5.78635C6.495 5.74176 6.52336 5.68432 6.58006 5.56944L8.40229 1.8778Z" stroke="#98A2B3" stroke-width="1.66667" stroke-linecap="round" stroke-linejoin="round"/>
</svg>
